<svg xmlns="http://www.w3.org/2000/svg" width="17.694" height="17.694" viewBox="0 0 17.694 17.694">
  <path id="technology_icon_v3" d="M18.153,18.154a.9.9,0,1,1,.235,1.438l-1.022,1.022a.285.285,0,0,1-.2.085H15.9l-2.739,2.739a.285.285,0,0,1-.4-.4l2.823-2.823a.284.284,0,0,1,.2-.084h1.264l.94-.94A.9.9,0,0,1,18.153,18.154Zm-3.422-2.218a.9.9,0,1,0-.4-.4l-1.022,1.022a.284.284,0,0,0-.085.2v1.264l-2.739,2.739a.285.285,0,0,0,.4.4l2.823-2.823a.285.285,0,0,0,.084-.2V16.875l.94-.94ZM18.323,16a.9.9,0,1,0-.4-.4L10.666,22.85a.285.285,0,0,0,.4.4ZM9.8,19.445l1.868-1.868a5.227,5.227,0,1,1,4.446,4.446l-1.868,1.868a7.5,7.5,0,0,0,1.143.32l.129.334.442,1.149h1.768l.442-1.149.129-.335a7.462,7.462,0,0,0,2.724-1.128l.327.145,1.125.5L23.1,23.1l.625-.625-.5-1.125-.145-.326A7.466,7.466,0,0,0,24.211,18.3l.334-.129,1.149-.442V15.963l-1.149-.442-.335-.129a7.463,7.463,0,0,0-1.128-2.724l.145-.327.5-1.125-.625-.625-.625-.625-1.125.5-.326.145A7.465,7.465,0,0,0,18.3,9.483l-.129-.334L17.731,8H15.963l-.442,1.149-.129.335a7.463,7.463,0,0,0-2.724,1.127l-.327-.145-1.125-.5-.625.625-.625.625.5,1.125.145.327a7.463,7.463,0,0,0-1.128,2.724l-.335.129L8,15.963v1.768l1.149.442.335.129a7.494,7.494,0,0,0,.32,1.143Z" transform="translate(-8 -8)" fill="#828499" fill-rule="evenodd"/>
</svg>
